# xmcd
#
# Track frame offsets:
# 150
# 20953
# 37115
# 49413
# 71708
# 85247
# 104448
# 119903
# 135247
# 151022
# 170572
# 189059
# 215469
# 234191
#
# Disc length: 3416 seconds
#
#
# Revision: 3
# Processed by: cddbd v1.5.2PL0 Copyright (c) Steve Scherf et al.
# Submitted via: FreeRIP 2.90 
#
DISCID=c20d560e
DTITLE=Renato Teixeira Ibirapuera - Renato Teixeira no Auditório Ibirapuera
DYEAR=2007
DGENRE=MPB
TTITLE0=Eta Mundo Bão
TTITLE1=Amora
TTITLE2=Amizade Sincera
TTITLE3=Quando o Amor se Vai
TTITLE4=Olhos Profundos Escute
TTITLE5=A Primeira Vez que Eu Fui ao Rio
TTITLE6=Encostada na Varanda
TTITLE7=Curvelo
TTITLE8=Pequenina
TTITLE9=Recado
TTITLE10=Tocando em Frente
TTITLE11=La Cigarra (La Cigarra)
TTITLE12=Frete
TTITLE13=Romaria
EXTD=Este paulista começou sua carreira no interior do estado por volta da década de 60. E você confere aqui todo talento neste show gravado ao vivo no auditório do Ibirapuera!
EXTT0=
EXTT1=
EXTT2=
EXTT3=
EXTT4=
EXTT5=
EXTT6=
EXTT7=
EXTT8=
EXTT9=
EXTT10=
EXTT11=
EXTT12=
EXTT13=
PLAYORDER=
